<svg width="685" height="674" viewBox="0 0 685 674" fill="none" xmlns="http://www.w3.org/2000/svg">
<g id="logo 1">
<path id="Vector" d="M379 138C382.449 131.129 383.023 123.073 388.264 117.043C413.592 87.9008 443.825 133.772 463 145.384C474.733 152.49 488.466 155.534 502 153.949C507.595 153.294 514.165 152.27 517 147C485.412 146.996 464.452 125.986 445.424 103.004C434.414 89.705 421.759 70.212 403 68.1736C377.604 65.4138 357.281 88.3072 353.285 112C352.434 117.051 349.536 128.987 353.028 133.397C355.638 136.692 374.147 136.996 379 138ZM331 165L387 166C386.376 136.718 335.655 139.301 331 165Z" fill=" #242d49"/>
<path id="Vector_2" d="M383 157L384 158L383 157Z" fill="#A25F49"/>
<path id="Vector_3" d="M193 290C210.686 281.743 227.126 272.406 246 266.72C320.512 244.273 396.613 251.372 471 269C471 245.155 467.187 217.469 448.985 200.09C432.184 184.047 408.195 179.633 386 176.576C329.88 168.847 250.273 173.647 211.328 221C195.861 239.807 193 266.572 193 290Z" fill=" #242d49"/>
<path id="Vector_4" d="M208 228L209 229L208 228Z" fill="#A25F49"/>
<path id="Vector_5" d="M574 261C577.285 252.746 580.294 246.901 588 242V240C563.233 229.702 534.859 222.36 510 236.877C498.719 243.465 491.45 255.437 488.804 268C487.444 274.46 486.901 280.744 493.985 284.248C496.928 285.704 498.687 283.58 499.66 280.98C504.107 269.101 509.592 260.085 521 253.465C541.68 241.464 555.657 250.551 574 261Z" fill=" #242d49"/>
<path id="Vector_6" d="M240 253V254L279 246.17L369 245L408 246.285L433 249C425.701 233.717 397.201 235 383 235C334.75 235 285.368 234.387 240 253Z" fill="#0A0E08"/>
<path id="Vector_7" d="M79 262V264C86.6788 267.654 90.7926 273.298 94 281C101.267 277.616 106.587 270.966 114 267.478C129.773 260.057 148.652 266.088 160.816 277.586C168.752 285.089 169.672 298.851 181 302C188.605 270.059 160.806 245.994 131 245.043C112.819 244.463 94.1191 252.747 79 262Z" fill=" #242d49"/>
<path id="Vector_8" d="M154 252L155 253L154 252Z" fill="#A25F49"/>
<path id="Vector_9" d="M317 263.424C277.203 268.65 234.171 274.729 200 297.749C185.403 307.583 173.607 339.19 196.001 349.181C203.917 352.712 212.723 347.358 220 344.449C236.653 337.793 253.773 332.237 271 327.291C310.838 315.853 356.469 308.215 398 312.17C412.894 313.588 427.679 316.407 442 320.72C450.836 323.381 461.601 328.628 471 326.471C483.769 323.54 494.914 305.217 487.772 293.001C483.204 285.188 473.218 280.634 465 277.698C435.601 267.197 403.854 265.312 373 263.961C354.753 263.162 335.22 261.032 317 263.424Z" fill=" #242d49"/>
<path id="Vector_10" d="M162 276L163 277L162 276Z" fill="#A25F49"/>
<path id="Vector_11" d="M499 310C521.885 310 542.241 329.322 555.244 347C562.058 356.265 567.756 367.925 577 375C577.51 363.154 583.292 353.145 596 352C593.361 345.185 587.51 339.785 583.13 334C570.621 317.479 557.291 303.36 538 294.731C527.737 290.14 509.56 284.167 501.603 296.043C499.107 299.77 499.805 305.664 499 310Z" fill=" #242d49"/>
<path id="Vector_12" d="M501 299L502 300L501 299Z" fill="#A25F49"/>
<path id="Vector_13" d="M82 374C98.0413 374.333 97.782 384.497 105 395C116.526 376.171 126.306 357.731 141.196 341.17C149.816 331.581 159.604 323.038 173 323C177.34 299.624 151.611 301.336 137 309.312C113.464 322.161 91.5184 348.895 82 374ZM299 377L311 399H312L301 377C327.471 375.846 354.719 357.88 376 343.667C385.098 337.59 398.379 322.649 409.999 324.19C416.643 325.071 419.597 331.284 423.463 336C430.989 345.181 441.196 352.346 448 362C425.816 367.284 403.384 365.517 382 375.309C372.45 379.682 362.677 385.863 361 397H362C373.424 364.247 423.222 369.449 450 363C448.28 356.909 442.367 353.294 437.996 348.985C428.895 340.014 419.113 319.602 404 322.519C391.428 324.946 376.96 341.386 366 348.192C344.206 361.725 322.563 368.16 299 377ZM214 538V537C200.921 524.953 189.309 513.393 183.809 496C179.534 482.476 178.371 469.058 179.95 455C181.102 444.744 183.731 434.315 188.259 425C197.698 405.583 213.045 388.871 233 380.039C253.533 370.952 276.236 371.216 298 367.565C316.598 364.445 333.688 357.514 350 348.15C360.525 342.107 378.767 333.607 385 323C327.209 323 272.736 334.122 219 355.6C213.693 357.722 207.809 360.538 202 360.736C197.286 360.897 192.656 357.756 188 359.322C173.634 364.151 162.958 384.069 157.427 397C142.287 432.404 137.084 481.642 159.333 515C169.83 530.737 194.264 550.09 214 538Z" fill=" #242d49"/>
<path id="Vector_14" d="M301 377C303.546 384.505 310.424 389.779 311.732 398C312.249 401.246 310.386 406.511 306.105 404.824C302.216 403.292 301.418 397.291 299.673 394C296.622 388.246 291.936 383.646 286 381C289.378 389.913 300.134 399.64 294.427 409.957C292.64 413.188 289.332 415.217 287 418C301.468 426.532 317.518 435.594 335 432.674C349.466 430.259 363.429 420.372 377 415C372.702 401.224 379.877 395.194 388 385C381.735 386.117 374.778 389.916 372.09 396.015C370.312 400.046 373.395 409.065 366.998 409.824C361.566 410.469 360.909 402.664 361.044 399C361.362 390.342 367.99 383.821 375 379.468C398.017 365.173 423.502 369.258 448 362C445.051 355.68 438.884 351.605 434.011 346.765C427.863 340.658 420.698 326.176 411.985 324.344C398.682 321.547 386.167 336.188 376 342.999C354.323 357.522 327.785 374.812 301 377Z" fill="#A25F49"/>
<path id="Vector_15" d="M491 324L476 337C482.952 342.653 482.433 353.442 476.786 359.985C474.448 362.695 468.595 365.826 469.457 370.015C470.455 374.867 475.648 379.542 477.88 384C482.23 392.691 484.894 402.328 485.83 412C488.996 444.718 472.38 479.059 455.575 506C449.831 515.208 441.836 523.289 437 533C461.385 532.795 483.627 510.723 496.508 492C524.342 451.54 529.872 405.616 511.396 360C506.756 348.544 500.664 332.008 491 324ZM433 329C436.591 338.27 448.73 350.409 458 354L466 337L433 329Z" fill=" #242d49"/>
<path id="Vector_16" d="M589 346L590 347L589 346ZM99 347L100 348L99 347ZM96 355L97 356L96 355Z" fill="#A25F49"/>
<path id="Vector_17" d="M435 373C438.915 380.743 444.727 383.256 443 393C450.103 392.055 465.276 378.201 455.397 371.067C451.87 368.52 439.242 372.212 435 373Z" fill=" #242d49"/>
<path id="Vector_18" d="M438 374V376C443.37 380.496 444.942 385.133 445 392C455.356 386.843 456 381.703 456 371L438 374Z" fill="#A25F49"/>
<path id="Vector_19" d="M284 379L285 383L288 380L284 379ZM263 380.439C258.099 381.201 245.933 381.88 243.043 386.43C240.387 390.612 245.275 395.549 248.093 398.076C255.431 404.656 268.805 411.392 278.999 409.528C287.583 407.958 288.179 400.651 284.235 394C279.311 385.696 273.24 378.848 263 380.439Z" fill=" #242d49"/>
<path id="Vector_20" d="M267 381.48C262.522 381.753 245.102 383.011 243.831 388.279C242.942 391.966 247.638 395.946 250.09 397.96C257.798 404.289 268.87 409.027 278.999 407.891C294.912 406.107 277.138 380.862 267 381.48Z" fill="#A11C1B"/>
<path id="Vector_21" d="M288 381L293 385L288 381ZM419 381.465C408.341 383.383 394.687 389.067 387.394 397.289C381.848 403.543 384.51 413.944 394 412.659C405.256 411.134 421.836 405.622 430.33 397.957C442.469 387.002 431.188 379.271 419 381.465ZM383 385V386C386.232 385.461 387.725 384.102 387 387L393 382L383 385Z" fill=" #242d49"/>
<path id="Vector_22" d="M422 382.439C410.948 384.174 397.332 389.453 389.189 397.326C384.699 401.667 383.311 411.282 392.001 411.447C402.799 411.652 421.948 403.623 429.812 396.482C438.814 388.308 432.33 380.817 422 382.439Z" fill="#A11C1B"/>
<path id="Vector_23" d="M264 383.429C259.908 383.988 248.326 384.389 246.161 388.513C244.261 392.134 249.621 395.952 252.015 397.652C259.108 402.688 269.891 408.337 278.985 406.641C285.743 405.381 284.525 399.561 281.728 395C277.613 388.289 272.416 382.279 264 383.429Z" fill="#F2120F"/>
<path id="Vector_24" d="M286 383L288 386L286 383Z" fill=" #242d49"/>
<path id="Vector_25" d="M419 384.518C409.199 386.596 397.475 391.404 390.109 398.326C385.216 402.922 386.026 410.619 394.001 409.656C404.502 408.387 419.7 402.915 427.906 396.239C438.371 387.725 428.306 382.544 419 384.518Z" fill="#F2120F"/>
<path id="Vector_26" d="M293 385L294 386L293 385ZM288 386L289 387L288 386ZM294 386L295 387L294 386ZM381.667 386.333L382.333 386.667L381.667 386.333ZM289.333 387.667L289.667 388.333L289.333 387.667ZM295 387L296 388L295 387ZM379.667 387.333L380.333 387.667L379.667 387.333ZM386 387L387 388L386 387ZM296 388L297 389L296 388ZM375 391L379 388L375 391ZM382 392L386 388L382 392ZM290 389L292 394H293L290 389ZM297 389L299 392L297 389ZM222 399L237 398C234.145 389.166 224.724 390.608 222 399ZM374 391L375 392L374 391Z" fill=" #242d49"/>
<path id="Vector_27" d="M224 398L235 397L233 392L224 398Z" fill="#A25F49"/>
<path id="Vector_28" d="M299 392L301 398H302L299 392ZM373 392L371 397H372L373 392ZM381 392L382 393L381 392ZM380 393L377 399H378L380 393ZM293 394L294 399H295L293 394ZM455 395C428.715 412.718 398.791 416.774 370 427.815C352.679 434.457 339.721 445.993 320 442.676C293.587 438.233 273.691 416.664 248 410.127C238.479 407.705 226.106 405.399 217.004 410.417C199.667 419.976 214.244 442.994 220.247 455C232.513 479.533 245.577 503.665 258.222 528C266.338 543.62 276.111 562.336 292 571.366C310.828 582.066 332.788 574.702 349 562.346C380.02 538.703 394.989 502.817 415.657 471C427.09 453.399 441.589 437.339 450.138 418C452.832 411.907 457.361 401.587 455 395ZM370 397V404H371L370 397ZM302 398V402H303L302 398ZM295 399V409H296L295 399ZM376.333 399.667L376.667 400.333L376.333 399.667ZM312.333 400.667L312.667 401.333L312.333 400.667ZM361 400C361.181 408.436 370.167 415.589 372 404H371C366.535 413.126 363.498 405.144 361 400ZM303.333 402.667L303.667 403.333L303.333 402.667ZM311.333 402.667L311.667 403.333L311.333 402.667ZM375.333 402.667L375.667 403.333L375.333 402.667ZM304 404V405H311V404H304ZM294.333 409.667L294.667 410.333L294.333 409.667ZM375 409L376 413H377L375 409ZM293 411L294 412L293 411ZM292 412L289 414V415L292 412ZM377 413L376 416L377 413ZM286 418L289 415L286 418ZM370 417V418L376 417H370ZM287 418L288 419L287 418ZM365 419V420L370 419H365ZM288 419V420L295 423V422L288 419ZM359 422V423L365 421L359 422ZM295 423V424L307 429V428L295 423ZM357.667 423.333L358.333 423.667L357.667 423.333ZM355.667 424.333L356.333 424.667L355.667 424.333ZM353.667 425.333L354.333 425.667L353.667 425.333ZM351.667 426.333L352.333 426.667L351.667 426.333ZM349.667 427.333L350.333 427.667L349.667 427.333ZM347.667 428.333L348.333 428.667L347.667 428.333ZM307 429V430L312 431V430L307 429ZM336 432V433L347 430L336 432ZM312 431V432L336 434L312 431Z" fill=" #242d49"/>
<path id="Vector_29" d="M247 438C251.982 446.191 263.638 451.99 272 456.244C289.178 464.982 308.31 472.66 328 469.561C341.66 467.411 354.094 460.649 367 456.051C379.98 451.426 393.747 449.272 406 442.676C408.47 441.347 417.155 436.528 414.824 432.647C413.136 429.835 406.146 433.623 404 434.329C392.801 438.016 381.319 440.615 370 443.86C353.37 448.628 338.311 459.456 321 461.711C293.203 465.332 271.028 448.057 247 438ZM288 480C290.889 484.372 297.192 485.747 302 487.329C315.432 491.751 330.295 493.494 344 489.409C349.094 487.891 363.615 482 360.353 474.333C358.393 469.727 346.989 477.05 344 478.186C325.062 485.381 307.325 481.527 288 480Z" fill="#0A0E08"/>
<path id="Vector_30" d="M304 489L305 490L304 489Z" fill="#A25F49"/>
<path id="Vector_31" d="M649 591V592H657L649 591Z" fill=" #242d49"/>
</g>
</svg>
